<svg id="Capa_1" data-name="Capa 1" xmlns="http://www.w3.org/2000/svg" viewBox="0 0 239.28 224"><defs><style>.cls-1{fill:#ad8d32;}.cls-2{fill:#fff;}</style></defs><path class="cls-1" d="M252.08,43.57l-60.69.16a34.12,34.12,0,0,1,2.92,5.64c5.3.29,11.27.78,14.35,3.54,2.33,2.08,3.67,5,3.69,9.3a24.57,24.57,0,0,1-.2,3,25,25,0,0,1-.78,3.73c-.4,1.42-.86,2.88-1.39,4.37s-1,2.91-1.58,4.26l-37.93,87.62L174,190.82,228.88,72.7a95.41,95.41,0,0,1,7.87-14.29,24.08,24.08,0,0,1,6.57-6.51,27,27,0,0,1,8.77-3.11Z" transform="translate(-20.36 -25)"/><path class="cls-2" d="M152,114.1v-.39q18.28-6.6,27.41-18.27t9.07-28.28q-.06-21.72-14.16-32T131.82,25l-60,.18,0,5.94A40.64,40.64,0,0,1,79.7,34a10.38,10.38,0,0,1,2.84,2.26H109q6.75-.48,17.51-.52,13.58,0,21.6,3.94a26.3,26.3,0,0,1,12,11.6q4,7.64,4,19.15,0,11-3.28,18.63a29.29,29.29,0,0,1-8.88,11.85,32.89,32.89,0,0,1-3.83,2.53l-9.06-25A85.78,85.78,0,0,1,136,69a32,32,0,0,1-1.08-7.82,11,11,0,0,1,1.57-6.28,10.17,10.17,0,0,1,4.78-3.64c1.54-.62,6.4-1.16,10.53-1.63A25.42,25.42,0,0,0,146,43.88L87.63,44a15.61,15.61,0,0,1,.19,5.4c3.79.69,9.41,1.67,11.37,2.93a20.51,20.51,0,0,1,5.87,6.16q2.67,4.08,6.3,13.76l13.69,35.91c-.76,0-1.53,0-2.32,0l-13.7,0v-.05H86.23l.16,52.15a81.35,81.35,0,0,1-.75,13.34,11.69,11.69,0,0,1-3.32,6.74q-2.53,2.37-10,4.33l0,5.95,51.18-.16,0-5.94a41.47,41.47,0,0,1-7.89-2.82,10.26,10.26,0,0,1-3.65-3.27,15.61,15.61,0,0,1-2-5.94,84.12,84.12,0,0,1-.7-12.67l-.13-41.23,13.34,0c1.27,0,2.42,0,3.49.06h3.17l27.5,72.13,17.43-.05-3.54-25.65Z" transform="translate(-20.36 -25)"/><path class="cls-2" d="M20.36,199.26h6.72c.34,0,.8,0,1.37,0a12.17,12.17,0,0,1,1.88.23,11.11,11.11,0,0,1,2.06.6,5.91,5.91,0,0,1,1.88,1.22,6.32,6.32,0,0,1,1.37,2,7.25,7.25,0,0,1,.54,3,7,7,0,0,1-.63,3.18,6,6,0,0,1-1.59,2,6.71,6.71,0,0,1-2.11,1.16,13.44,13.44,0,0,1-2.2.53l7.44,12.89H34.38l-7.19-12.74H22.75v12.74H20.36Zm2.39,11.83H27.8a8,8,0,0,0,3.06-.49,5,5,0,0,0,1.82-1.21,3.83,3.83,0,0,0,.88-1.56,4.9,4.9,0,0,0,0-3,3.83,3.83,0,0,0-.88-1.56A5,5,0,0,0,30.86,202a8,8,0,0,0-3.06-.49H22.75Z" transform="translate(-20.36 -25)"/><path class="cls-2" d="M40,199.26H55.62v2.28H42.36v9.55H54.79v2.28H42.36v10.47H56.2v2.27H40Z" transform="translate(-20.36 -25)"/><path class="cls-2" d="M59.59,199.26h3.07l15.57,23.52h.07V199.26h2.39v26.85H77.62L62.05,202.6H62v23.51H59.59Z" transform="translate(-20.36 -25)"/><path class="cls-2" d="M85.56,199.26h7.91a16.58,16.58,0,0,1,5.64.85A12.4,12.4,0,0,1,103,202.3a10.72,10.72,0,0,1,2.42,2.93,15,15,0,0,1,1.3,3.1,15.21,15.21,0,0,1,.52,2.67c.07.8.11,1.36.11,1.69s0,.89-.11,1.69a15.57,15.57,0,0,1-.52,2.67,14.73,14.73,0,0,1-1.3,3.09,10.61,10.61,0,0,1-2.42,2.94,12.39,12.39,0,0,1-3.85,2.18,16.34,16.34,0,0,1-5.64.85H85.56ZM88,223.84h4.91a16,16,0,0,0,4.73-.67,10.56,10.56,0,0,0,3.83-2,9.63,9.63,0,0,0,2.57-3.47,13.85,13.85,0,0,0,0-10,9.63,9.63,0,0,0-2.57-3.47,10.58,10.58,0,0,0-3.83-2,16.39,16.39,0,0,0-4.73-.66H88Z" transform="translate(-20.36 -25)"/><path class="cls-2" d="M110.85,199.26h15.64v2.28H113.23v9.55h12.43v2.28H113.23v10.47h13.84v2.27H110.85Z" transform="translate(-20.36 -25)"/><path class="cls-2" d="M127.79,224.14l15-22.6H128v-2.28h17.81v2.05l-15.07,22.53h15.46v2.27H127.79Z" transform="translate(-20.36 -25)"/><path class="cls-2" d="M154.38,216.1h8.92v2.05h-8.92Z" transform="translate(-20.36 -25)"/><path class="cls-2" d="M170.52,199.26h2.57l8.23,23.55,8.31-23.55h2.53l-9.72,26.85h-2.38Z" transform="translate(-20.36 -25)"/><path class="cls-2" d="M192.09,212.69a15.85,15.85,0,0,1,1-5.65,13.64,13.64,0,0,1,2.71-4.46,12.42,12.42,0,0,1,4.17-2.94,14.11,14.11,0,0,1,10.73,0,12.36,12.36,0,0,1,4.18,2.94,13.62,13.62,0,0,1,2.7,4.46,16.83,16.83,0,0,1,0,11.32,13.56,13.56,0,0,1-2.7,4.47,11.91,11.91,0,0,1-4.18,2.92,14.23,14.23,0,0,1-10.73,0,12,12,0,0,1-4.17-2.92,13.59,13.59,0,0,1-2.71-4.47A16,16,0,0,1,192.09,212.69Zm2.38,0a13.85,13.85,0,0,0,.76,4.66,11.27,11.27,0,0,0,2.17,3.76,10.15,10.15,0,0,0,3.41,2.5,11.58,11.58,0,0,0,9,0,10.15,10.15,0,0,0,3.41-2.5,11.27,11.27,0,0,0,2.17-3.76,14.7,14.7,0,0,0,0-9.33,11.22,11.22,0,0,0-2.17-3.75,10.18,10.18,0,0,0-3.41-2.51,11.58,11.58,0,0,0-9,0,10.18,10.18,0,0,0-3.41,2.51,11.22,11.22,0,0,0-2.17,3.75A13.9,13.9,0,0,0,194.47,212.69Z" transform="translate(-20.36 -25)"/><path class="cls-2" d="M240.24,215.84a17.9,17.9,0,0,1-.47,4.13,9.66,9.66,0,0,1-1.57,3.49,8.09,8.09,0,0,1-2.89,2.43,11,11,0,0,1-8.78,0,8.09,8.09,0,0,1-2.89-2.43,9.66,9.66,0,0,1-1.57-3.49,17.9,17.9,0,0,1-.47-4.13V199.26H224v15.93a19.81,19.81,0,0,0,.25,3.07,9.78,9.78,0,0,0,1,3,5.92,5.92,0,0,0,5.69,3.22,5.9,5.9,0,0,0,5.69-3.22,9.78,9.78,0,0,0,1-3,19.88,19.88,0,0,0,.26-3.07V199.26h2.38Z" transform="translate(-20.36 -25)"/><path class="cls-2" d="M245.66,221.15a6.3,6.3,0,0,0,2.44,2.54,6.94,6.94,0,0,0,3.41.83,6.35,6.35,0,0,0,2.24-.38,5.39,5.39,0,0,0,1.82-1.06,4.92,4.92,0,0,0,1.23-1.65,5.09,5.09,0,0,0,.45-2.18,4.25,4.25,0,0,0-.56-2.31,4.54,4.54,0,0,0-1.49-1.5,11.24,11.24,0,0,0-2.12-1c-.78-.28-1.59-.55-2.42-.83s-1.64-.6-2.42-.95a8.1,8.1,0,0,1-2.11-1.38,6.11,6.11,0,0,1-1.5-2.15,8,8,0,0,1-.56-3.18,7.14,7.14,0,0,1,.67-3.17,6.63,6.63,0,0,1,1.8-2.31,8,8,0,0,1,2.62-1.41,10.37,10.37,0,0,1,3.11-.47,9.57,9.57,0,0,1,3.88.78,7.43,7.43,0,0,1,3.09,2.59l-2.06,1.56a6,6,0,0,0-2.11-2,5.94,5.94,0,0,0-2.87-.67,7.34,7.34,0,0,0-2.21.33,5.42,5.42,0,0,0-1.82.94,4.76,4.76,0,0,0-1.25,1.58,5,5,0,0,0-.47,2.24,4.46,4.46,0,0,0,1,3.09,6.73,6.73,0,0,0,2.44,1.7,23.19,23.19,0,0,0,3.18,1.1,14.6,14.6,0,0,1,3.17,1.28,7,7,0,0,1,2.44,2.21,6.88,6.88,0,0,1,1,3.93,7.62,7.62,0,0,1-.65,3.22,7.11,7.11,0,0,1-1.75,2.37,7.35,7.35,0,0,1-2.55,1.46,9.17,9.17,0,0,1-3,.5,11.54,11.54,0,0,1-4.66-.93,8.61,8.61,0,0,1-3.65-3.13Z" transform="translate(-20.36 -25)"/><path class="cls-2" d="M154.29,236.6c0-.19,0-.42,0-.69l0-.81c0-.28,0-.53,0-.77s0-.42,0-.55h1.24q0,.56,0,1.08a2.88,2.88,0,0,0,0,.67h.06a3.56,3.56,0,0,1,3.26-2,3.11,3.11,0,0,1,1.74.51,2.93,2.93,0,0,1,1.14,1.65,3.14,3.14,0,0,1,1.35-1.64,3.69,3.69,0,0,1,1.89-.52,4,4,0,0,1,1.82.36,3.05,3.05,0,0,1,1.1,1,3.86,3.86,0,0,1,.56,1.38,8.43,8.43,0,0,1,.15,1.6v6h-1.24v-5.9a6.67,6.67,0,0,0-.1-1.19,3.4,3.4,0,0,0-.36-1,1.91,1.91,0,0,0-.72-.72,2.41,2.41,0,0,0-1.21-.27,2.78,2.78,0,0,0-1.43.33,2.56,2.56,0,0,0-.87.86,3.5,3.5,0,0,0-.46,1.13,5.27,5.27,0,0,0-.13,1.15v5.64h-1.24v-6a4.43,4.43,0,0,0-.49-2.24,1.61,1.61,0,0,0-1.5-.84,3.33,3.33,0,0,0-1.29.25,2.86,2.86,0,0,0-1,.75,3.75,3.75,0,0,0-.7,1.28,5.83,5.83,0,0,0-.26,1.82v5h-1.24Z" transform="translate(-20.36 -25)"/><path class="cls-2" d="M178.27,239.59c0,.49,0,.93,0,1.32s0,.75,0,1.09,0,.64.05.93a8.58,8.58,0,0,0,.1.87H177.3a10.31,10.31,0,0,1-.12-1.63h-.05a3.5,3.5,0,0,1-1.33,1.43,4,4,0,0,1-2,.46,4.6,4.6,0,0,1-1.22-.17,3,3,0,0,1-1.07-.52,2.7,2.7,0,0,1-.78-.92,2.86,2.86,0,0,1-.3-1.37,2.79,2.79,0,0,1,.56-1.82,3.53,3.53,0,0,1,1.37-1,6.62,6.62,0,0,1,1.74-.43c.61-.06,1.15-.1,1.62-.1h1.44v-.6a2.17,2.17,0,0,0-.76-1.87,3.12,3.12,0,0,0-1.92-.56,4.23,4.23,0,0,0-2.91,1.12l-.73-.89a4.45,4.45,0,0,1,1.7-1,6,6,0,0,1,1.94-.35,4.21,4.21,0,0,1,2.77.85,3.39,3.39,0,0,1,1,2.77Zm-2.48-.83a10.77,10.77,0,0,0-1.52.11,5.1,5.1,0,0,0-1.32.37,2.58,2.58,0,0,0-.94.69,1.72,1.72,0,0,0-.35,1.09,1.68,1.68,0,0,0,.2.81,1.81,1.81,0,0,0,.5.59,2.49,2.49,0,0,0,.69.35,3,3,0,0,0,.78.11,3.86,3.86,0,0,0,1.63-.3,2.74,2.74,0,0,0,1-.79,2.85,2.85,0,0,0,.53-1.11,5.18,5.18,0,0,0,.14-1.24v-.68Z" transform="translate(-20.36 -25)"/><path class="cls-2" d="M190.13,243.14a7.52,7.52,0,0,1-.52,3,4.94,4.94,0,0,1-1.29,1.78,4.15,4.15,0,0,1-1.66.84A6.66,6.66,0,0,1,185,249a7.33,7.33,0,0,1-1.41-.14,6.9,6.9,0,0,1-1.31-.41,5.24,5.24,0,0,1-1.13-.66,4.63,4.63,0,0,1-.88-.89l1-1a4,4,0,0,0,1.65,1.43,4.88,4.88,0,0,0,2.1.46,4.36,4.36,0,0,0,1.6-.26,3.07,3.07,0,0,0,1.08-.68,3.49,3.49,0,0,0,.66-.94,5.14,5.14,0,0,0,.35-1,5.86,5.86,0,0,0,.14-1c0-.3,0-.55,0-.74v-1.39h0a3.85,3.85,0,0,1-1.45,1.44,4.37,4.37,0,0,1-2.16.52,5.11,5.11,0,0,1-3.6-1.51,5.25,5.25,0,0,1-1.1-1.64,5.18,5.18,0,0,1,0-4,5.19,5.19,0,0,1,2.72-2.73,4.75,4.75,0,0,1,2-.41,4.27,4.27,0,0,1,2.16.52,3.76,3.76,0,0,1,1.45,1.43h0v-1.69h1.24Zm-1.2-4.48a4.09,4.09,0,0,0-.3-1.56,4,4,0,0,0-.81-1.25,3.69,3.69,0,0,0-1.2-.85,3.66,3.66,0,0,0-3,0,3.79,3.79,0,0,0-1.2.85,4.07,4.07,0,0,0-1.1,2.81,4,4,0,0,0,.3,1.55,4.12,4.12,0,0,0,.8,1.25,3.79,3.79,0,0,0,1.2.85,3.66,3.66,0,0,0,3,0,3.69,3.69,0,0,0,1.2-.85,4,4,0,0,0,.81-1.25A4,4,0,0,0,188.93,238.66Z" transform="translate(-20.36 -25)"/><path class="cls-2" d="M199.54,239.59c0,.49,0,.93,0,1.32s0,.75,0,1.09,0,.64.06.93.05.58.09.87h-1.16a10.31,10.31,0,0,1-.12-1.63h0a3.58,3.58,0,0,1-1.34,1.43,4,4,0,0,1-2,.46,4.6,4.6,0,0,1-1.22-.17,3,3,0,0,1-1.07-.52,2.7,2.7,0,0,1-.78-.92,2.86,2.86,0,0,1-.3-1.37,2.79,2.79,0,0,1,.56-1.82,3.49,3.49,0,0,1,1.38-1,6.55,6.55,0,0,1,1.73-.43c.61-.06,1.15-.1,1.62-.1h1.45v-.6a2.18,2.18,0,0,0-.77-1.87,3.12,3.12,0,0,0-1.92-.56,4.23,4.23,0,0,0-2.91,1.12l-.72-.89a4.41,4.41,0,0,1,1.69-1,6,6,0,0,1,1.94-.35,4.21,4.21,0,0,1,2.77.85,3.39,3.39,0,0,1,1,2.77Zm-2.48-.83a10.52,10.52,0,0,0-1.51.11,5.29,5.29,0,0,0-1.33.37,2.58,2.58,0,0,0-.94.69,1.72,1.72,0,0,0-.35,1.09,1.68,1.68,0,0,0,.2.81,1.72,1.72,0,0,0,.51.59,2.24,2.24,0,0,0,.69.35,2.87,2.87,0,0,0,.77.11,3.83,3.83,0,0,0,1.63-.3,2.66,2.66,0,0,0,1.55-1.9,5.19,5.19,0,0,0,.15-1.24v-.68Z" transform="translate(-20.36 -25)"/><path class="cls-2" d="M200.72,243l5.72-8.06H201v-1.17h7.15v.78l-5.71,8.06h6v1.18h-7.68Z" transform="translate(-20.36 -25)"/><path class="cls-2" d="M209.48,229.81a1,1,0,0,1,.27-.7.89.89,0,0,1,.66-.28.91.91,0,0,1,.66.28,1,1,0,0,1,0,1.39.87.87,0,0,1-.66.28.85.85,0,0,1-.66-.28A1,1,0,0,1,209.48,229.81Zm.31,4H211v10h-1.24Z" transform="translate(-20.36 -25)"/><path class="cls-2" d="M213.5,236.6c0-.19,0-.42,0-.69l0-.81c0-.28,0-.53,0-.77s0-.42,0-.55h1.24l0,1.08a4.87,4.87,0,0,0,.05.67h.06a3.55,3.55,0,0,1,1.24-1.42,3.49,3.49,0,0,1,2-.59,4,4,0,0,1,1.82.36,3.05,3.05,0,0,1,1.1,1,3.68,3.68,0,0,1,.56,1.38,8.43,8.43,0,0,1,.15,1.6v6h-1.24v-5.9a6.67,6.67,0,0,0-.1-1.19,3.4,3.4,0,0,0-.36-1,1.91,1.91,0,0,0-.72-.72,2.41,2.41,0,0,0-1.21-.27,3.26,3.26,0,0,0-1.29.25,2.82,2.82,0,0,0-1.06.75A3.92,3.92,0,0,0,215,237a5.83,5.83,0,0,0-.26,1.82v5H213.5Z" transform="translate(-20.36 -25)"/><path class="cls-2" d="M232.38,241.91a4.37,4.37,0,0,1-1.78,1.65,5.53,5.53,0,0,1-2.35.5,4.86,4.86,0,0,1-2-.39,4.53,4.53,0,0,1-1.53-1.1,4.88,4.88,0,0,1-1-1.67,6.32,6.32,0,0,1-.34-2.14,6.09,6.09,0,0,1,.35-2.08,5,5,0,0,1,1-1.66,4.56,4.56,0,0,1,1.51-1.1,4.49,4.49,0,0,1,1.92-.4,4.38,4.38,0,0,1,1.93.4,4,4,0,0,1,1.4,1.06,4.43,4.43,0,0,1,.86,1.51,5.29,5.29,0,0,1,.29,1.71v.91h-8a4.7,4.7,0,0,0,.15,1,4.11,4.11,0,0,0,.57,1.25,3.71,3.71,0,0,0,1.11,1,3.28,3.28,0,0,0,1.78.43,3.93,3.93,0,0,0,1.84-.47,3.35,3.35,0,0,0,1.36-1.3Zm-.95-4a3,3,0,0,0-.26-1.26,3.27,3.27,0,0,0-1.75-1.73,3.17,3.17,0,0,0-1.29-.26,3.05,3.05,0,0,0-1.69.43,3.78,3.78,0,0,0-1.06,1,4,4,0,0,0-.56,1.09,3,3,0,0,0-.16.73Z" transform="translate(-20.36 -25)"/></svg>